<svg width="240" height="240" viewBox="0 0 240 240" fill="none" xmlns="http://www.w3.org/2000/svg">
<path d="M120 0C96.2663 0 73.0655 7.03786 53.3316 20.2236C33.5977 33.4094 18.217 52.1509 9.13452 74.078C0.0520103 96.0051 -2.32441 120.133 2.30581 143.411C6.93604 166.689 18.365 188.07 35.1473 204.853C51.9296 221.635 73.3115 233.064 96.5892 237.694C119.867 242.324 143.995 239.948 165.922 230.865C187.849 221.783 206.591 206.402 219.776 186.668C232.962 166.935 240 143.734 240 120C239.958 88.187 227.301 57.6891 204.806 35.1939C182.311 12.6987 151.813 0.0423327 120 0ZM120 235.712C97.1144 235.712 74.7426 228.926 55.7139 216.211C36.6852 203.496 21.8541 185.425 13.0961 164.281C4.33813 143.137 2.04666 119.872 6.51143 97.4257C10.9762 74.9797 21.9967 54.3619 38.1793 38.1793C54.3619 21.9967 74.9798 10.9762 97.4258 6.51142C119.872 2.04665 143.137 4.33813 164.281 13.0961C185.425 21.8541 203.496 36.6851 216.211 55.7139C228.926 74.7426 235.712 97.1143 235.712 120C235.678 150.678 223.476 180.09 201.783 201.783C180.09 223.476 150.678 235.678 120 235.712Z" fill="#0063A6"/>
<path d="M72.2891 151.616C73.3747 151.009 74.3123 150.169 75.0346 149.157C75.7568 148.144 76.2457 146.984 76.466 145.76C76.6863 144.536 76.6326 143.279 76.3088 142.078C75.9849 140.877 75.399 139.763 74.5931 138.816C73.5204 139.434 72.5958 140.28 71.8835 141.293C71.1713 142.306 70.6886 143.462 70.4693 144.681C70.2499 145.899 70.2991 147.151 70.6134 148.349C70.9277 149.547 71.4995 150.662 72.2891 151.616Z" fill="#0063A6"/>
<path d="M91.9047 129.28C91.0028 130.084 90.2811 131.07 89.7869 132.173C89.2927 133.276 89.0373 134.471 89.0373 135.68C89.0373 136.888 89.2927 138.083 89.7869 139.186C90.2811 140.289 91.0028 141.275 91.9047 142.08C92.8112 141.278 93.537 140.293 94.0342 139.189C94.5313 138.086 94.7884 136.89 94.7884 135.68C94.7884 134.469 94.5313 133.273 94.0342 132.17C93.537 131.066 92.8112 130.081 91.9047 129.28Z" fill="#0063A6"/>
<path d="M167.168 151.584C167.921 150.629 168.46 149.525 168.75 148.345C169.041 147.164 169.075 145.936 168.85 144.741C168.626 143.547 168.149 142.414 167.45 141.42C166.751 140.425 165.848 139.592 164.8 138.976C164.027 139.922 163.469 141.025 163.167 142.21C162.865 143.394 162.825 144.63 163.05 145.831C163.276 147.032 163.762 148.169 164.473 149.163C165.184 150.156 166.104 150.983 167.168 151.584Z" fill="#0063A6"/>
<path d="M147.552 129.28C146.65 130.084 145.928 131.07 145.434 132.173C144.94 133.276 144.684 134.471 144.684 135.68C144.684 136.888 144.94 138.083 145.434 139.186C145.928 140.289 146.65 141.275 147.552 142.08C148.458 141.278 149.184 140.293 149.681 139.189C150.178 138.086 150.435 136.89 150.435 135.68C150.435 134.469 150.178 133.273 149.681 132.17C149.184 131.066 148.458 130.081 147.552 129.28Z" fill="#0063A6"/>
<path d="M119.681 79.072C120.596 78.2759 121.331 77.2928 121.834 76.1887C122.337 75.0846 122.597 73.8853 122.597 72.672C122.597 71.4586 122.337 70.2595 121.834 69.1554C121.331 68.0513 120.596 67.068 119.681 66.272C118.774 67.0737 118.048 68.0589 117.551 69.1622C117.054 70.2655 116.797 71.4618 116.797 72.672C116.797 73.8821 117.054 75.0785 117.551 76.1818C118.048 77.2852 118.774 78.2702 119.681 79.072Z" fill="#0063A6"/>
<path d="M108.769 82.4958C109.949 82.1865 111.048 81.6252 111.99 80.8507C112.933 80.0762 113.696 79.1068 114.228 78.0091C114.761 76.9114 115.049 75.7114 115.073 74.4918C115.097 73.2722 114.857 72.0618 114.369 70.9438C113.195 71.2626 112.103 71.8293 111.166 72.6059C110.23 73.3824 109.47 74.3506 108.94 75.4453C108.409 76.54 108.119 77.7358 108.09 78.952C108.06 80.1683 108.292 81.3766 108.769 82.4958Z" fill="#0063A6"/>
<path d="M119.711 85.9517C118.809 86.7562 118.087 87.7422 117.593 88.8451C117.099 89.9481 116.844 91.1431 116.844 92.3517C116.844 93.5603 117.099 94.7551 117.593 95.8581C118.087 96.9611 118.809 97.9472 119.711 98.7517C120.613 97.9472 121.335 96.9611 121.829 95.8581C122.323 94.7551 122.578 93.5603 122.578 92.3517C122.578 91.1431 122.323 89.9481 121.829 88.8451C121.335 87.7422 120.613 86.7562 119.711 85.9517Z" fill="#0063A6"/>
<path d="M130.72 82.4958C131.196 81.3725 131.424 80.1598 131.388 78.9404C131.352 77.721 131.054 76.5236 130.513 75.43C129.973 74.3365 129.202 73.3723 128.255 72.6037C127.308 71.835 126.206 71.2797 125.024 70.9758C124.543 72.0986 124.311 73.3125 124.344 74.5336C124.377 75.7548 124.674 76.9543 125.216 78.0494C125.757 79.1444 126.53 80.1091 127.48 80.8767C128.43 81.6444 129.536 82.1968 130.72 82.4958Z" fill="#0063A6"/>
<path d="M157.121 86.8478C158.171 86.2068 159.071 85.348 159.762 84.3294C160.452 83.3108 160.916 82.1561 161.122 80.9431C161.328 79.73 161.272 78.4869 160.957 77.2975C160.642 76.108 160.076 74.9999 159.297 74.0479C158.238 74.6815 157.329 75.5369 156.633 76.5552C155.936 77.5735 155.468 78.7306 155.262 79.9469C155.055 81.1632 155.114 82.4098 155.435 83.6011C155.756 84.7923 156.331 85.9 157.121 86.8478Z" fill="#0063A6"/>
<path d="M80.0004 74.1438C79.2524 75.1027 78.7168 76.2097 78.4293 77.3915C78.1418 78.5732 78.1089 79.8026 78.3329 80.998C78.5568 82.1934 79.0325 83.3275 79.7282 84.3251C80.424 85.3226 81.324 86.1606 82.3685 86.7837C83.1425 85.835 83.7002 84.7288 84.0026 83.5422C84.305 82.3557 84.3449 81.1174 84.1194 79.9139C83.8939 78.7104 83.4086 77.5706 82.6972 76.574C81.9858 75.5774 81.0654 74.748 80.0004 74.1438Z" fill="#0063A6"/>
<path d="M83.744 119.36C82.9486 118.459 81.9759 117.732 80.8867 117.225C79.7974 116.717 78.6152 116.439 77.4138 116.409C76.2124 116.379 75.0178 116.597 73.9046 117.05C72.7914 117.503 71.7835 118.18 70.944 119.04C74.368 123.712 82.112 122.656 83.744 119.36Z" fill="#0063A6"/>
<path d="M168.513 118.976C167.66 118.13 166.643 117.468 165.524 117.032C164.405 116.595 163.209 116.393 162.009 116.438C160.808 116.483 159.63 116.774 158.547 117.293C157.464 117.813 156.5 118.549 155.713 119.456C156.54 120.348 157.55 121.05 158.673 121.516C159.797 121.981 161.008 122.198 162.223 122.153C163.438 122.107 164.629 121.8 165.715 121.251C166.8 120.703 167.755 119.927 168.513 118.976Z" fill="#0063A6"/>
<path d="M166.881 127.2C168.01 127.662 169.226 127.873 170.444 127.817C171.663 127.762 172.854 127.441 173.936 126.877C175.018 126.314 175.963 125.521 176.707 124.554C177.45 123.587 177.974 122.47 178.242 121.28C177.11 120.85 175.901 120.665 174.693 120.736C173.486 120.807 172.307 121.133 171.234 121.692C170.161 122.251 169.218 123.031 168.468 123.98C167.718 124.929 167.177 126.027 166.881 127.2Z" fill="#0063A6"/>
<path d="M108.001 105.312C108.155 104.119 108.055 102.908 107.706 101.758C107.358 100.607 106.77 99.5431 105.981 98.6362C105.192 97.7292 104.22 96.9997 103.129 96.4957C102.037 95.9916 100.851 95.7244 99.6494 95.7117C99.4628 96.9092 99.54 98.1331 99.8758 99.2976C100.212 100.462 100.798 101.539 101.593 102.454C102.389 103.368 103.374 104.098 104.481 104.591C105.588 105.085 106.79 105.331 108.001 105.312Z" fill="#0063A6"/>
<path d="M95.4885 96.9277C96.5648 96.3873 97.5172 95.6295 98.2856 94.7022C99.0539 93.7749 99.6215 92.6981 99.9523 91.5402C100.283 90.3822 100.37 89.1682 100.208 87.975C100.045 86.7817 99.6369 85.635 99.0086 84.6077C94.2406 86.3997 92.1925 93.6317 95.4885 96.9277Z" fill="#0063A6"/>
<path d="M98.5594 105.28C98.6335 106.49 98.9683 107.67 99.5408 108.739C100.113 109.808 100.91 110.741 101.876 111.473C102.843 112.205 103.956 112.72 105.14 112.982C106.324 113.245 107.55 113.248 108.735 112.992C108.661 111.782 108.326 110.602 107.754 109.533C107.181 108.464 106.385 107.532 105.418 106.799C104.452 106.067 103.339 105.552 102.155 105.29C100.971 105.028 99.7446 105.024 98.5594 105.28Z" fill="#0063A6"/>
<path d="M140.864 105.248C135.424 104.352 129.664 109.024 130.88 113.184C132.065 113.378 133.278 113.323 134.441 113.02C135.603 112.718 136.69 112.176 137.63 111.428C138.571 110.681 139.344 109.745 139.901 108.68C140.458 107.616 140.786 106.447 140.864 105.248Z" fill="#0063A6"/>
<path d="M139.712 95.6157C138.501 95.6377 137.308 95.919 136.214 96.4408C135.121 96.9626 134.152 97.7126 133.372 98.6405C132.593 99.5684 132.022 100.653 131.697 101.82C131.372 102.987 131.301 104.211 131.488 105.408C132.707 105.407 133.91 105.14 135.015 104.625C136.119 104.111 137.097 103.36 137.881 102.427C138.665 101.494 139.235 100.401 139.551 99.2242C139.867 98.0475 139.922 96.8159 139.712 95.6157Z" fill="#0063A6"/>
<path d="M144.096 96.9599C144.762 95.9358 145.197 94.7795 145.372 93.5709C145.548 92.3622 145.459 91.13 145.112 89.9589C144.766 88.7879 144.169 87.7059 143.364 86.7876C142.559 85.8694 141.564 85.1367 140.448 84.6399C139.809 85.6712 139.396 86.826 139.234 88.0285C139.073 89.2309 139.168 90.4538 139.512 91.6171C139.857 92.7804 140.443 93.8578 141.233 94.7786C142.023 95.6993 142.999 96.4427 144.096 96.9599Z" fill="#0063A6"/>
<path d="M83.008 105.216C82.7388 104.031 82.2219 102.917 81.4913 101.946C80.7607 100.976 79.8329 100.171 78.7689 99.5846C77.705 98.9982 76.5289 98.6436 75.3182 98.5442C74.1074 98.4449 72.8893 98.6029 71.744 99.0079C71.9791 100.212 72.4754 101.349 73.1979 102.34C73.9204 103.331 74.8516 104.151 75.9257 104.743C76.9998 105.335 78.1907 105.684 79.4144 105.766C80.6381 105.848 81.8648 105.66 83.008 105.216Z" fill="#0063A6"/>
<path d="M156.416 105.248C157.566 105.693 158.801 105.875 160.031 105.782C161.261 105.688 162.454 105.321 163.524 104.708C164.594 104.095 165.514 103.251 166.216 102.237C166.919 101.223 167.386 100.066 167.584 98.8482C166.431 98.4609 165.209 98.3222 163.999 98.4413C162.789 98.5604 161.617 98.9347 160.562 99.5393C159.507 100.144 158.592 100.965 157.877 101.949C157.163 102.933 156.665 104.058 156.416 105.248Z" fill="#0063A6"/>
<path d="M119.937 49.3761C103.536 49.294 87.6145 54.9048 74.8885 65.2514C62.1625 75.598 53.4206 90.0395 50.1538 106.112C46.8871 122.185 49.298 138.893 56.9753 153.387C64.6526 167.88 77.1207 179.261 92.2526 185.588C107.384 191.915 124.243 192.795 139.952 188.08C155.66 183.364 169.247 173.345 178.392 159.73C187.538 146.116 191.677 129.75 190.103 113.424C188.529 97.0984 181.34 81.8246 169.761 70.2082C163.236 63.6274 155.476 58.3996 146.926 54.8248C138.376 51.2499 129.204 49.3982 119.937 49.3761ZM128.865 53.7282C128.865 54.0802 128.865 54.4321 128.865 54.7841C128.626 56.8931 129.178 59.016 130.413 60.742C131.648 62.4679 133.48 63.6744 135.553 64.1282C137.057 60.9282 136.129 57.7282 132.609 54.3042C135.547 54.8545 138.444 55.6029 141.281 56.5442C137.153 60.8322 136.449 64.5442 138.913 68.4162C142.817 67.3602 144.545 62.7201 143.137 57.1841C145.405 58.0258 147.627 58.9871 149.793 60.0641L139.713 71.0402C139.609 71.0723 139.497 71.0723 139.393 71.0402C135.647 68.1915 132.195 64.9755 129.089 61.4402C127.14 59.1225 125.682 56.4336 124.801 53.5362C126.113 53.3122 127.489 53.5362 128.865 53.7282ZM96.3212 57.4402C95.877 58.5791 95.6706 59.7969 95.7146 61.0186C95.7586 62.2403 96.0522 63.4402 96.5772 64.5442C97.3622 66.3283 98.7739 67.7627 100.545 68.5761C101.243 67.6026 101.715 66.4853 101.925 65.3059C102.136 64.1265 102.08 62.9151 101.761 61.7602C101.342 59.7432 100.205 57.9467 98.5612 56.7042C101.315 55.7674 104.126 55.0086 106.977 54.4322C103.553 57.9842 102.689 61.0882 104.193 64.2242C105.382 63.9476 106.497 63.4187 107.463 62.6733C108.429 61.9279 109.224 60.9836 109.793 59.9042C110.807 58.0374 111.124 55.8713 110.689 53.7921C112.065 53.6001 113.441 53.4402 114.817 53.3442C114.176 55.4713 113.215 57.4889 111.969 59.3282C109.914 62.2092 107.506 64.8215 104.801 67.1042C103.233 68.5122 101.601 69.8241 100.033 71.1681L90.0813 60.2562C92.0333 59.2322 94.1452 58.2722 96.3212 57.4402ZM69.5692 76.1282C69.251 77.5454 69.2859 79.0191 69.671 80.4197C70.056 81.8202 70.7793 83.1048 71.7773 84.1602C75.6173 81.2162 76.2039 77.1415 73.5373 71.9362C75.4557 70.0975 77.4748 68.3669 79.5853 66.7522C79.7819 68.086 80.2823 69.3567 81.048 70.4664C81.8137 71.576 82.8241 72.495 84.0012 73.1522C85.4547 74.0485 87.1709 74.4211 88.8652 74.2082C89.0274 72.0477 88.3437 69.9088 86.9585 68.243C85.5733 66.5772 83.595 65.5148 81.4412 65.2801L83.8412 63.6482C87.8257 67.2193 91.4485 71.1745 94.6572 75.4562C89.2187 80.4207 85.9251 87.3064 85.4732 94.6562C79.348 89.3754 72.3538 85.1961 64.8012 82.3041C66.2719 80.1565 67.8638 78.0946 69.5692 76.1282ZM59.1692 92.1282C60.0018 93.9483 61.4218 95.436 63.2012 96.3522C64.2268 96.9107 65.3603 97.2425 66.5251 97.3253C67.6899 97.4081 68.859 97.24 69.9532 96.8322C69.8194 95.6477 69.3924 94.5153 68.7107 93.5375C68.029 92.5597 67.1143 91.7674 66.0492 91.2322C64.2552 90.18 62.1474 89.7947 60.0972 90.1442L61.3132 87.8082C72.2252 92.5442 82.1132 98.4321 88.8652 108.48L88.6412 108.832C87.0092 108.672 85.4412 108.416 83.7452 108.384C81.5372 108.384 79.2972 108.384 77.0892 108.384C76.7606 108.45 76.4198 108.415 76.1115 108.283C75.8032 108.152 75.5417 107.931 75.3612 107.648C71.5198 101.97 65.7593 97.8687 59.1373 96.0961L57.6652 95.6482C58.1452 94.5922 58.6252 93.4082 59.1692 92.2562V92.1282ZM54.1452 108.128C55.8755 109.487 58.0718 110.108 60.2572 109.856C61.9679 109.645 63.5461 108.828 64.7052 107.552C62.6252 104.352 58.6893 103.936 54.5293 105.984C54.8493 104.576 55.2013 103.168 55.5853 101.792C60.5026 102.902 64.9666 105.48 68.3853 109.184C63.1917 110.254 58.1356 111.907 53.3132 114.112C53.4928 112.19 53.7705 110.278 54.1452 108.384V108.128ZM53.5373 127.328C54.5279 128.851 55.9581 130.037 57.6384 130.729C59.3186 131.42 61.1694 131.585 62.9452 131.2C62.8446 129.961 62.4676 128.76 61.8419 127.686C61.2161 126.611 60.3575 125.691 59.3293 124.992C57.5306 123.887 55.4061 123.435 53.3132 123.712C53.3132 122.976 53.3132 122.24 53.3132 121.504L55.0092 120.704C59.8141 118.455 64.8915 116.841 70.1132 115.904C77.5388 114.364 85.2284 114.66 92.5132 116.768L94.2092 117.376L93.4092 117.728C89.2187 119.68 85.2849 122.141 81.6972 125.056C79.0093 127.363 75.9887 129.251 72.7373 130.656C68.8916 132.091 64.8624 132.974 60.7692 133.28L54.7532 133.6C54.0812 131.584 53.7933 129.6 53.5373 127.616V127.328ZM110.657 140.128C110.562 146.91 109.92 153.673 108.737 160.352C108.037 164.687 106.812 168.921 105.089 172.96C104.233 174.953 103.055 176.791 101.601 178.4C100.689 179.514 99.5178 180.388 98.1904 180.945C96.863 181.503 95.4194 181.728 93.9853 181.6C79.4379 175.408 67.5323 164.295 60.3532 150.208C66.1132 148.352 68.7692 145.056 68.0652 140.448C66.9382 140.429 65.8189 140.637 64.7742 141.061C63.7296 141.484 62.781 142.114 61.9853 142.912C60.5296 144.292 59.6015 146.137 59.3612 148.128C58.1161 145.493 57.0471 142.777 56.1612 140C64.0678 140.018 71.8731 138.223 78.9773 134.752C78.9773 137.28 78.9773 139.616 78.9773 141.888C79.1812 144.226 79.8216 146.506 80.8652 148.608L86.7532 146.336C86.3692 144.64 85.8893 143.136 85.6333 141.472C84.7942 137.23 85.67 132.828 88.0689 129.229C90.4677 125.631 94.1944 123.129 98.4333 122.272C99.7537 121.895 101.14 121.805 102.498 122.01C103.856 122.214 105.154 122.707 106.305 123.456C107.439 124.075 108.405 124.96 109.118 126.037C109.832 127.113 110.273 128.347 110.401 129.632C110.689 133.312 110.913 136.768 110.657 140.288V140.128ZM99.3932 111.776C96.0766 108.815 93.7466 104.909 92.7169 100.584C91.687 96.2589 92.0069 91.722 93.6333 87.5841C94.7563 84.953 96.4763 82.6195 98.6572 80.7681C106.69 92.1851 111.699 105.451 113.217 119.328C108.235 117.638 103.565 115.141 99.3932 111.936V111.776ZM119.873 116.224C119.676 115.897 119.505 115.554 119.361 115.2C118.099 107.677 115.951 100.33 112.961 93.3122C112.652 92.6411 112.584 91.8835 112.769 91.1681C113.376 88.2463 114.77 85.5462 116.801 83.3602C117.185 82.8802 117.601 82.4322 118.113 81.8562L115.489 79.0721C113.21 81.2133 111.353 83.7644 110.017 86.5921C110.017 86.5921 109.761 86.4322 109.697 86.3362L103.841 76.3522C109.825 71.2002 116.129 66.2722 119.841 58.5282C123.489 66.2082 129.697 71.1682 135.841 76.3522L129.665 86.6562C128.364 83.8258 126.515 81.2809 124.225 79.1681L121.441 81.7602L123.137 83.6482C125.048 85.7784 126.343 88.3893 126.881 91.2001C127.058 91.7953 127.058 92.429 126.881 93.0242C123.63 100.507 121.278 108.348 119.873 116.384V116.224ZM140.801 80.7042C141.58 81.4411 142.317 82.221 143.009 83.0402C145.466 86.0468 146.986 89.7092 147.378 93.5723C147.771 97.4354 147.019 101.329 145.217 104.768C143.551 108.353 140.94 111.417 137.665 113.632C134.058 115.928 130.218 117.838 126.209 119.328C127.769 105.486 132.787 92.2579 140.801 80.8641V80.7042ZM180.257 148.896C180.154 147.526 179.757 146.195 179.095 144.991C178.432 143.788 177.519 142.74 176.417 141.92C174.934 140.856 173.154 140.285 171.329 140.288C171.149 141.51 171.245 142.756 171.611 143.936C171.976 145.116 172.602 146.198 173.441 147.104C175.02 148.898 177.21 150.039 179.585 150.304C172.455 164.26 160.672 175.285 146.273 181.472C144.678 181.793 143.025 181.664 141.499 181.098C139.973 180.533 138.635 179.555 137.633 178.272C135.917 176.271 134.583 173.971 133.697 171.488C131.838 166.517 130.592 161.337 129.985 156.064C129.015 148.542 128.587 140.96 128.705 133.376C128.694 132.123 128.779 130.872 128.961 129.632C129.267 127.759 130.149 126.027 131.486 124.679C132.823 123.331 134.546 122.434 136.417 122.112C138.157 121.778 139.954 121.899 141.633 122.464C144.695 123.241 147.469 124.882 149.625 127.191C151.781 129.5 153.228 132.38 153.793 135.488C154.282 138.488 154.04 141.561 153.089 144.448C152.897 144.992 152.737 145.536 152.481 146.24L158.497 148.608C160.412 144.235 161.066 139.413 160.385 134.688C167.674 138.254 175.696 140.062 183.809 139.968C182.842 143.078 181.655 146.115 180.257 149.056V148.896ZM186.849 121.536C186.849 122.176 186.849 122.848 186.849 123.52C185.416 123.313 183.954 123.445 182.581 123.907C181.208 124.368 179.963 125.145 178.945 126.176C177.588 127.48 176.747 129.23 176.577 131.104C179.777 132.384 182.977 131.104 186.625 126.624C186.398 128.848 186.057 131.059 185.601 133.248H185.025C179.089 133.386 173.174 132.476 167.553 130.56C165.033 129.635 162.67 128.329 160.545 126.688C158.465 125.088 156.417 123.488 154.145 122.016C151.873 120.544 149.121 119.072 146.625 117.6L145.633 117.024C148.868 115.76 152.279 115.004 155.745 114.784C165.343 114.269 174.924 116.069 183.681 120.032L186.881 121.44L186.849 121.536ZM185.537 106.432C180.993 104 177.089 104.448 174.721 107.552C177.377 110.752 180.929 110.752 185.793 107.872C186.187 109.989 186.465 112.125 186.625 114.272C181.627 112.042 176.386 110.399 171.009 109.376C174.542 105.489 179.232 102.841 184.385 101.824C184.833 103.456 185.217 104.992 185.537 106.592V106.432ZM178.593 87.6482C179.073 88.4802 179.521 89.3441 179.937 90.1761C178.551 89.8785 177.115 89.9026 175.739 90.2465C174.363 90.5905 173.085 91.2451 172.001 92.1602C170.637 93.2827 169.681 94.8235 169.281 96.5442C173.153 98.5922 177.761 96.5442 180.577 91.5202C181.185 92.8002 181.729 94.1122 182.241 95.4242L181.313 95.7442C176.496 96.9851 172.042 99.3543 168.321 102.656C166.814 104.19 165.413 105.826 164.129 107.552C163.681 108.096 163.297 108.448 162.593 108.352C158.955 108 155.286 108.129 151.681 108.736C151.33 108.76 150.977 108.76 150.625 108.736C151.169 107.872 151.553 107.136 152.065 106.432C154.656 102.961 157.752 99.8982 161.249 97.3442C166.357 93.5148 171.94 90.3632 177.857 87.9681L178.593 87.6482ZM154.017 94.4322C153.77 90.7697 152.802 87.192 151.169 83.9042C149.483 80.7565 147.325 77.8858 144.769 75.3921C148.054 71.0353 151.774 67.0252 155.873 63.4242C156.737 63.9682 157.569 64.5442 158.401 65.1202C156.339 65.3481 154.412 66.2607 152.929 67.7122C152.093 68.5481 151.439 69.5486 151.01 70.6502C150.58 71.7519 150.384 72.9307 150.433 74.1122C151.629 74.2436 152.839 74.1112 153.978 73.7242C155.117 73.3371 156.157 72.7049 157.025 71.8721C158.649 70.3761 159.673 68.34 159.905 66.1442C162.082 67.7619 164.156 69.5147 166.113 71.3921C165.303 72.4114 164.726 73.5955 164.422 74.8614C164.118 76.1272 164.095 77.4443 164.353 78.7202C164.704 80.7818 165.854 82.6218 167.553 83.8402C168.763 82.7517 169.616 81.3225 169.999 79.7404C170.381 78.1583 170.276 76.4974 169.697 74.9761C171.672 77.1456 173.5 79.4441 175.169 81.8562C167.415 84.8058 160.252 89.119 154.017 94.5921V94.4322Z" fill="#0063A6"/>
<path d="M25.9522 73.5362C26.0639 73.2914 26.2676 73.1004 26.5192 73.0046C26.7707 72.9088 27.0498 72.9158 27.2962 73.0242L28.8322 73.6962C28.9579 73.7421 29.0731 73.813 29.1707 73.9046C29.2683 73.9962 29.3464 74.1067 29.4003 74.2293C29.4541 74.3519 29.4825 74.484 29.4838 74.6179C29.4852 74.7518 29.4595 74.8846 29.4082 75.0082L27.7122 78.9122L46.6562 86.9122C46.901 87.024 47.092 87.2277 47.1878 87.4792C47.2837 87.7307 47.2766 88.0099 47.1682 88.2563L46.2722 90.3682C46.2228 90.4951 46.1487 90.6109 46.0541 90.7088C45.9594 90.8067 45.8462 90.8848 45.7211 90.9384C45.596 90.992 45.4614 91.0202 45.3252 91.0212C45.189 91.0222 45.0541 90.996 44.9282 90.9442L26.0162 82.9442L24.4162 86.6882C24.3677 86.8112 24.2943 86.923 24.2007 87.0163C24.107 87.1097 23.9952 87.1826 23.872 87.2307C23.7488 87.2787 23.617 87.3009 23.4849 87.2956C23.3528 87.2904 23.2231 87.2579 23.1042 87.2002L21.5362 86.5603C21.2935 86.4544 21.1012 86.2585 20.9997 86.0139C20.8983 85.7692 20.8956 85.4948 20.9922 85.2482L25.9522 73.5362Z" fill="#0063A6"/>
<path d="M45.7931 68.5756L53.6971 74.4317C53.901 74.6059 54.0333 74.8491 54.0687 75.1149C54.1042 75.3806 54.0402 75.6501 53.8891 75.8716L52.5132 77.7277C52.3479 77.9429 52.1061 78.0862 51.838 78.1279C51.5699 78.1696 51.296 78.1065 51.0732 77.9517L32.3532 64.0957C32.1517 63.9269 32.0204 63.6891 31.9849 63.4288C31.9494 63.1684 32.0123 62.9042 32.1612 62.6876L37.3452 55.6796C37.7013 55.193 38.1519 54.7833 38.6702 54.475C39.1885 54.1667 39.7637 53.9662 40.3613 53.8855C40.9589 53.8048 41.5666 53.8456 42.1481 54.0054C42.7295 54.1653 43.2728 54.4409 43.7452 54.8157L46.5931 56.9277C48.4491 58.2717 49.4731 59.9676 48.2891 61.9836C50.2091 59.8396 52.4492 60.6716 54.3692 61.9836L59.7132 66.1117C59.8207 66.1933 59.911 66.2954 59.9789 66.4122C60.0468 66.5289 60.0909 66.6579 60.1087 66.7917C60.1266 66.9256 60.1178 67.0616 60.0828 67.192C60.0479 67.3225 59.9875 67.4447 59.9052 67.5517L58.5292 69.4077C58.3696 69.6206 58.1334 69.7631 57.8705 69.8049C57.6077 69.8467 57.339 69.7846 57.1212 69.6317L51.0732 65.1836C50.8265 65.0078 50.5471 64.883 50.2515 64.8167C49.9559 64.7505 49.65 64.7439 49.3518 64.7976C49.0537 64.8513 48.7693 64.964 48.5153 65.1292C48.2614 65.2945 48.0431 65.5089 47.8732 65.7597L45.7931 68.5756ZM42.4332 58.9756C42.1938 58.7878 41.9181 58.6515 41.6235 58.5752C41.3289 58.499 41.0218 58.4844 40.7213 58.5325C40.4208 58.5805 40.1335 58.6903 39.8774 58.8546C39.6213 59.019 39.402 59.2345 39.2332 59.4876L37.1532 62.3037L42.9132 66.5597L44.9932 63.7756C45.1826 63.5382 45.321 63.2644 45.3997 62.971C45.4785 62.6777 45.4959 62.3714 45.4508 62.071C45.4058 61.7707 45.2993 61.4828 45.1379 61.2255C44.9766 60.9682 44.7639 60.747 44.5132 60.5756L42.4332 58.9756Z" fill="#0063A6"/>
<path d="M57.152 37.472C57.0688 37.3696 57.0068 37.2517 56.9697 37.125C56.9327 36.9984 56.9213 36.8655 56.9362 36.7344C56.9511 36.6033 56.992 36.4765 57.0565 36.3614C57.121 36.2463 57.2079 36.1451 57.312 36.064L59.104 34.6241C59.2995 34.4419 59.5568 34.3406 59.824 34.3406C60.0912 34.3406 60.3485 34.4419 60.544 34.6241L71.872 48.6401C72.9748 50.1657 73.4512 52.0559 73.2031 53.9219C72.955 55.788 72.0013 57.488 70.5382 58.6724C69.0751 59.8569 67.2137 60.4357 65.3369 60.2898C63.4601 60.1439 61.7105 59.2844 60.448 57.888L49.088 43.8401C48.9316 43.6262 48.8642 43.3599 48.9 43.0973C48.9358 42.8347 49.072 42.5963 49.28 42.4321L51.04 40.992C51.2354 40.8098 51.4928 40.7085 51.76 40.7085C52.0272 40.7085 52.2845 40.8098 52.48 40.992L63.84 55.0081C64.0858 55.3127 64.3893 55.566 64.733 55.7534C65.0767 55.9408 65.4539 56.0586 65.8432 56.1002C66.2324 56.1418 66.6261 56.1064 67.0017 55.9958C67.3772 55.8853 67.7273 55.7019 68.032 55.4561C68.3367 55.2103 68.5899 54.9067 68.7773 54.563C68.9647 54.2193 69.0826 53.8421 69.1242 53.4529C69.1658 53.0636 69.1303 52.6699 69.0197 52.2944C68.9092 51.9188 68.7258 51.5687 68.48 51.264L57.152 37.472Z" fill="#0063A6"/>
<path d="M76.4795 31.9362C77.0875 33.2482 77.9835 33.3761 80.0635 33.6641L85.5355 34.4641C88.7355 34.9441 89.7274 36.0002 91.1034 39.0082C91.8519 40.7798 91.8804 42.7735 91.1829 44.5659C90.4853 46.3582 89.1167 47.8081 87.3675 48.6078C85.6183 49.4074 83.6263 49.4938 81.8144 48.8486C80.0026 48.2034 78.5135 46.8774 77.6635 45.1522L77.0554 43.8402C76.9651 43.5885 76.9706 43.3122 77.0709 43.0643C77.1713 42.8164 77.3594 42.6141 77.5994 42.4961L79.6795 41.5362C79.9219 41.4256 80.1979 41.4138 80.4489 41.5035C80.6998 41.5931 80.9059 41.777 81.0235 42.0162L81.6315 43.3602C81.7812 43.7421 82.0074 44.0893 82.2962 44.3805C82.5851 44.6718 82.9304 44.9009 83.3111 45.0538C83.6917 45.2066 84.0996 45.28 84.5096 45.2694C84.9196 45.2588 85.3232 45.1644 85.6954 44.9921C86.0839 44.8432 86.4346 44.61 86.7222 44.3093C87.0099 44.0087 87.2272 43.648 87.3588 43.2533C87.4904 42.8585 87.5329 42.4396 87.4832 42.0265C87.4335 41.6134 87.2929 41.2164 87.0715 40.8641L86.8474 40.3841C86.2394 39.0401 85.3435 38.9121 83.8715 38.6881L77.2155 37.6961C76.1332 37.4892 75.1227 37.0065 74.2818 36.2945C73.4409 35.5825 72.798 34.6655 72.4155 33.6322C71.9492 32.7677 71.6772 31.8119 71.6184 30.8315C71.5596 29.8511 71.7153 28.8695 72.0748 27.9555C72.4343 27.0415 72.9889 26.2169 73.6999 25.5393C74.4109 24.8617 75.2612 24.3474 76.1914 24.0322C77.0154 23.5362 77.9371 23.2247 78.893 23.1191C79.8489 23.0135 80.8163 23.1163 81.7287 23.4205C82.6411 23.7246 83.4767 24.2228 84.1781 24.8808C84.8794 25.5388 85.4298 26.341 85.7914 27.2322L86.1115 27.9681C86.2117 28.2154 86.2146 28.4914 86.1196 28.7408C86.0246 28.9901 85.8388 29.1943 85.5994 29.3122L83.5195 30.2402C83.3986 30.3045 83.2658 30.3432 83.1293 30.3537C82.9928 30.3642 82.8557 30.3463 82.7264 30.3012C82.5972 30.2561 82.4787 30.1848 82.3783 30.0917C82.278 29.9985 82.198 29.8857 82.1434 29.7602L81.8235 29.0562C81.6943 28.6628 81.4809 28.3022 81.1981 27.9997C80.9153 27.6972 80.57 27.46 80.1861 27.3046C79.8023 27.1493 79.3892 27.0795 78.9756 27.1002C78.562 27.1208 78.1579 27.2314 77.7914 27.4242C77.3964 27.5649 77.0382 27.7929 76.7437 28.0915C76.4491 28.39 76.2258 28.7512 76.0905 29.1481C75.9551 29.545 75.9111 29.9674 75.9618 30.3836C76.0126 30.7999 76.1567 31.1994 76.3835 31.5522L76.4795 31.9362Z" fill="#0063A6"/>
<path d="M105.792 16.096C106.054 16.0488 106.325 16.106 106.546 16.2554C106.768 16.4048 106.922 16.6347 106.976 16.896L107.296 18.5601C107.344 18.8183 107.291 19.0851 107.148 19.3055C107.005 19.5259 106.783 19.6829 106.528 19.7441L102.528 20.5441L106.496 40.704C106.534 40.9702 106.469 41.2409 106.314 41.4609C106.16 41.681 105.927 41.8337 105.664 41.888L103.392 42.336C103.129 42.3833 102.858 42.3261 102.637 42.1767C102.416 42.0272 102.262 41.7974 102.208 41.536L98.1118 21.312L94.1438 22.08C93.8764 22.1265 93.6016 22.065 93.3796 21.909C93.1577 21.753 93.0066 21.5153 92.9598 21.2481L92.6398 19.616C92.5905 19.3538 92.6423 19.0826 92.7848 18.857C92.9272 18.6315 93.1498 18.4682 93.4078 18.4L105.792 16.096Z" fill="#0063A6"/>
<path d="M117.632 40.5118C117.366 40.4883 117.118 40.3677 116.935 40.173C116.752 39.9782 116.647 39.723 116.64 39.4559L117.44 16.1918C117.449 16.0573 117.483 15.9257 117.542 15.8045C117.601 15.6834 117.684 15.5751 117.785 15.4859C117.886 15.3967 118.004 15.3284 118.131 15.2848C118.259 15.2412 118.394 15.2232 118.528 15.2319L129.504 15.6158C129.638 15.6199 129.768 15.6507 129.889 15.7064C130.01 15.7621 130.119 15.8415 130.209 15.9401C130.298 16.0386 130.367 16.1542 130.411 16.2799C130.455 16.4056 130.473 16.5389 130.464 16.6718V18.3998C130.464 18.5328 130.438 18.6645 130.386 18.787C130.334 18.9095 130.258 19.0203 130.163 19.1128C130.067 19.2054 129.954 19.2778 129.83 19.3257C129.706 19.3736 129.573 19.3961 129.44 19.3918L121.824 19.1359L121.6 25.5359L128.16 25.7599C128.421 25.7907 128.661 25.9144 128.838 26.1084C129.014 26.3024 129.115 26.5537 129.12 26.8158V28.5118C129.105 28.7752 128.991 29.0232 128.801 29.2068C128.612 29.3904 128.36 29.4963 128.096 29.5038L121.536 29.2798L121.248 36.9278L129.056 37.2158C129.19 37.2198 129.32 37.2507 129.441 37.3064C129.562 37.3621 129.671 37.4415 129.761 37.5401C129.85 37.6386 129.919 37.7542 129.963 37.8799C130.007 38.0056 130.025 38.1389 130.016 38.2718V39.9998C130.008 40.2658 129.897 40.5182 129.705 40.7033C129.514 40.8885 129.259 40.9919 128.992 40.9918L117.632 40.5118Z" fill="#0063A6"/>
<path d="M150.175 41.2154C149.765 42.4118 148.915 43.4075 147.798 44.0015C146.682 44.5955 145.381 44.7435 144.159 44.4154L135.967 42.0475C135.839 42.0181 135.718 41.9624 135.612 41.8842C135.506 41.8059 135.417 41.7067 135.351 41.5926C135.285 41.4785 135.243 41.3521 135.228 41.2211C135.213 41.0901 135.225 40.9575 135.263 40.8315L141.663 18.4315C141.7 18.3046 141.762 18.1864 141.844 18.0836C141.927 17.9809 142.03 17.8957 142.146 17.8331C142.262 17.7705 142.39 17.7318 142.521 17.7192C142.653 17.7065 142.785 17.7202 142.911 17.7595L151.103 20.0954C152.312 20.4338 153.345 21.2235 153.988 22.3014C154.631 23.3793 154.836 24.663 154.559 25.8874L150.175 41.2154ZM149.887 26.0475C150.042 25.7413 150.124 25.4037 150.127 25.0608C150.131 24.7178 150.055 24.3787 149.907 24.0696C149.758 23.7604 149.541 23.4894 149.271 23.2776C149.002 23.0657 148.687 22.9185 148.351 22.8475L145.151 21.9515L140.191 39.2634L143.391 40.1914C143.698 40.2986 144.025 40.3367 144.348 40.303C144.672 40.2694 144.983 40.1647 145.262 39.9966C145.54 39.8285 145.777 39.601 145.957 39.3305C146.138 39.0599 146.256 38.7529 146.303 38.4315L149.887 26.0475Z" fill="#0063A6"/>
<path d="M166.4 54.2719C166.326 54.3833 166.231 54.4787 166.119 54.5523C166.008 54.6258 165.882 54.676 165.751 54.7C165.619 54.7239 165.484 54.721 165.354 54.6915C165.224 54.6619 165.101 54.6063 164.992 54.528L163.104 53.12C162.893 52.9603 162.749 52.7268 162.701 52.466C162.654 52.2051 162.706 51.9359 162.848 51.712L176.672 32.96C176.754 32.8525 176.856 32.7622 176.973 32.6943C177.09 32.6264 177.218 32.5823 177.352 32.5644C177.486 32.5466 177.622 32.5553 177.753 32.5903C177.883 32.6252 178.005 32.6856 178.112 32.7679L186.944 39.1679C187.051 39.2467 187.14 39.3461 187.208 39.46C187.275 39.574 187.319 39.7003 187.337 39.8315C187.355 39.9627 187.347 40.0962 187.312 40.2241C187.278 40.3519 187.218 40.4715 187.136 40.5759L186.112 41.952C186.038 42.0634 185.943 42.1587 185.831 42.2323C185.72 42.3058 185.594 42.356 185.463 42.3799C185.331 42.4038 185.196 42.401 185.066 42.3714C184.936 42.3419 184.813 42.2863 184.704 42.208L178.56 37.6639L174.912 42.8799L180.192 46.7839C180.299 46.8627 180.388 46.962 180.456 47.0759C180.523 47.1899 180.567 47.3163 180.585 47.4475C180.603 47.5787 180.595 47.7122 180.56 47.8401C180.526 47.968 180.466 48.0876 180.384 48.1919L179.392 49.536C179.318 49.6474 179.223 49.7427 179.111 49.8163C179 49.8898 178.874 49.9401 178.743 49.964C178.611 49.9879 178.476 49.985 178.346 49.9554C178.216 49.9259 178.093 49.8702 177.984 49.7919L172.704 45.8879L166.4 54.2719Z" fill="#0063A6"/>
<path d="M190.241 70.4318C188.752 71.7048 186.818 72.334 184.864 72.181C182.911 72.028 181.098 71.1052 179.825 69.6158C178.552 68.1263 177.923 66.1921 178.076 64.2387C178.229 62.2853 179.152 60.4728 180.641 59.1997L190.497 50.8797C191.987 49.6067 193.921 48.9775 195.874 49.1305C197.828 49.2835 199.64 50.2063 200.913 51.6957C202.186 53.1852 202.815 55.1194 202.662 57.0728C202.509 59.0262 201.587 60.8387 200.097 62.1117L190.241 70.4318ZM197.249 58.7837C197.59 58.5519 197.878 58.2495 198.092 57.897C198.306 57.5445 198.442 57.1502 198.491 56.7406C198.539 56.3309 198.499 55.9157 198.373 55.5229C198.248 55.1301 198.039 54.7688 197.761 54.4637C197.507 54.1397 197.186 53.8735 196.821 53.6826C196.456 53.4917 196.054 53.3806 195.643 53.3564C195.231 53.3322 194.82 53.3955 194.435 53.5423C194.05 53.6891 193.7 53.9159 193.409 54.2077L183.553 62.5278C183.214 62.7689 182.928 63.0779 182.714 63.4353C182.5 63.7926 182.362 64.1905 182.31 64.6037C182.258 65.017 182.292 65.4365 182.411 65.8358C182.529 66.2351 182.729 66.6055 182.998 66.9235C183.267 67.2414 183.599 67.5 183.974 67.6829C184.348 67.8658 184.756 67.969 185.172 67.986C185.588 68.0029 186.003 67.9332 186.391 67.7814C186.779 67.6295 187.131 67.3988 187.425 67.1037L197.249 58.7837Z" fill="#0063A6"/>
<path d="M200.224 78.5278L191.328 82.7838C191.08 82.884 190.804 82.8869 190.555 82.792C190.306 82.697 190.101 82.5111 189.983 82.2717L188.991 80.1918C188.877 79.9485 188.86 79.6707 188.943 79.415C189.026 79.1593 189.204 78.945 189.44 78.8158L210.432 68.7358C210.679 68.6356 210.955 68.6326 211.204 68.7276C211.453 68.8226 211.658 69.0085 211.775 69.2478L215.552 77.0878C215.818 77.6317 215.971 78.224 216.002 78.8289C216.033 79.4337 215.941 80.0385 215.732 80.6068C215.522 81.1751 215.2 81.6951 214.784 82.1352C214.368 82.5754 213.867 82.9266 213.311 83.1677L210.111 84.7358C208.063 85.7278 206.079 85.8238 204.863 83.8398C205.823 86.5278 204.064 88.1278 201.92 89.1838L195.807 92.0958C195.688 92.1549 195.558 92.1894 195.425 92.1971C195.292 92.2049 195.159 92.1858 195.034 92.141C194.908 92.0962 194.793 92.0266 194.695 91.9364C194.597 91.8462 194.518 91.7371 194.463 91.6158L193.471 89.5038C193.411 89.3864 193.375 89.2582 193.365 89.1266C193.355 88.9951 193.372 88.8628 193.413 88.7377C193.455 88.6125 193.521 88.497 193.608 88.3977C193.695 88.2985 193.801 88.2177 193.92 88.1598L200.671 84.9598C200.959 84.8275 201.215 84.6376 201.426 84.4018C201.636 84.1661 201.796 83.8895 201.895 83.5893C201.994 83.2892 202.03 82.9718 202.002 82.6571C201.973 82.3424 201.879 82.037 201.728 81.7598L200.224 78.5278ZM210.399 80.1278C210.697 80.0077 210.964 79.8242 211.184 79.5901C211.403 79.3561 211.569 79.0771 211.669 78.7725C211.77 78.468 211.803 78.1452 211.766 77.8266C211.729 77.5081 211.623 77.2013 211.456 76.9278L209.952 73.7278L203.552 76.9278L205.056 80.1278C205.174 80.427 205.355 80.6973 205.586 80.9203C205.818 81.1433 206.096 81.3137 206.399 81.42C206.703 81.5263 207.026 81.5659 207.346 81.5362C207.666 81.5065 207.977 81.4081 208.256 81.2478L210.399 80.1278Z" fill="#0063A6"/>
<path d="M27.713 158.688C25.8807 159.241 23.9049 159.059 22.2047 158.18C20.5045 157.301 19.2136 155.794 18.6059 153.979C17.9981 152.164 18.1213 150.184 18.9493 148.458C19.7773 146.733 21.2449 145.397 23.0409 144.736L35.233 140.672C37.0356 140.206 38.9478 140.44 40.5844 141.328C42.221 142.216 43.4604 143.691 44.0528 145.456C44.6452 147.221 44.5467 149.145 43.777 150.84C43.0073 152.535 41.6237 153.876 39.9049 154.592L27.713 158.688ZM38.529 150.464C38.9009 150.34 39.2447 150.144 39.5408 149.887C39.837 149.63 40.0797 149.317 40.255 148.967C40.4303 148.616 40.5348 148.235 40.5626 147.844C40.5904 147.452 40.5409 147.06 40.417 146.688C40.293 146.316 40.097 145.972 39.8402 145.676C39.5833 145.38 39.2706 145.137 38.92 144.962C38.5694 144.787 38.1876 144.682 37.7965 144.654C37.4055 144.626 37.0128 144.676 36.6409 144.8L24.417 148.864C24.0277 148.977 23.6655 149.169 23.352 149.426C23.0385 149.683 22.7802 150.001 22.5926 150.36C22.4051 150.719 22.2922 151.113 22.2606 151.517C22.2291 151.922 22.2796 152.328 22.4091 152.712C22.5386 153.096 22.7445 153.451 23.0143 153.753C23.2841 154.056 23.6123 154.301 23.9792 154.473C24.3461 154.646 24.7441 154.743 25.1492 154.757C25.5544 154.772 25.9584 154.705 26.337 154.56L38.529 150.464Z" fill="#0063A6"/>
<path d="M51.7434 165.312C52.0156 165.221 52.3101 165.222 52.5818 165.314C52.8534 165.407 53.0872 165.586 53.2474 165.824L54.4315 167.776C54.4951 167.874 54.5381 167.983 54.5581 168.099C54.578 168.214 54.5745 168.332 54.5475 168.445C54.5206 168.559 54.4709 168.666 54.4014 168.76C54.332 168.854 54.2442 168.933 54.1434 168.992L53.7595 169.152L31.5835 177.44C31.3689 177.501 31.1402 177.49 30.9323 177.409C30.7243 177.328 30.5485 177.182 30.4315 176.992L27.5195 172.16C27.3869 171.979 27.3154 171.76 27.3154 171.536C27.3154 171.311 27.3869 171.093 27.5195 170.912L45.1835 155.168L45.5035 154.88C45.6021 154.822 45.7111 154.785 45.8241 154.771C45.9371 154.756 46.052 154.763 46.1621 154.793C46.2722 154.823 46.3752 154.874 46.4654 154.944C46.5556 155.014 46.631 155.101 46.6874 155.2L47.8715 157.152C48.0117 157.404 48.0627 157.696 48.0162 157.98C47.9697 158.265 47.8285 158.525 47.6155 158.72L31.6155 172.896L51.7434 165.312Z" fill="#0063A6"/>
<path d="M38.7525 188.448C38.5703 188.252 38.469 187.995 38.469 187.728C38.469 187.46 38.5703 187.203 38.7525 187.008L55.7765 171.008C55.8687 170.915 55.9784 170.841 56.0992 170.791C56.22 170.74 56.3496 170.715 56.4805 170.715C56.6114 170.715 56.7409 170.74 56.8618 170.791C56.9826 170.841 57.0923 170.915 57.1845 171.008L64.7045 179.008C64.8867 179.203 64.988 179.46 64.988 179.728C64.988 179.995 64.8867 180.252 64.7045 180.448L63.4565 181.632C63.261 181.814 63.0038 181.915 62.7365 181.915C62.4693 181.915 62.212 181.814 62.0165 181.632L56.8005 176.064L52.1925 180.352L56.6725 185.152C56.8547 185.347 56.956 185.604 56.956 185.872C56.956 186.139 56.8547 186.396 56.6725 186.592L55.4565 187.744C55.261 187.926 55.0038 188.027 54.7365 188.027C54.4693 188.027 54.212 187.926 54.0165 187.744L49.5365 182.944L43.7125 188.32L49.1525 194.112C49.3347 194.307 49.436 194.564 49.436 194.832C49.436 195.099 49.3347 195.356 49.1525 195.552L47.9045 196.736C47.709 196.918 47.4517 197.019 47.1845 197.019C46.9173 197.019 46.66 196.918 46.4645 196.736L38.7525 188.448Z" fill="#0063A6"/>
<path d="M63.1033 196.384L57.4713 204.448C57.395 204.556 57.2975 204.649 57.1848 204.719C57.072 204.79 56.9461 204.837 56.8148 204.858C56.6834 204.879 56.5492 204.873 56.4201 204.841C56.291 204.809 56.1697 204.751 56.0633 204.672L54.1753 203.36C54.0614 203.288 53.9631 203.195 53.8865 203.084C53.8098 202.974 53.7564 202.849 53.7295 202.717C53.7025 202.586 53.7026 202.45 53.7298 202.318C53.7569 202.187 53.8105 202.062 53.8873 201.952L67.1993 182.752C67.3541 182.534 67.588 182.385 67.8512 182.337C68.1143 182.289 68.3857 182.346 68.6073 182.496L75.7113 187.712C76.2151 188.05 76.6448 188.488 76.9743 188.998C77.3037 189.508 77.5261 190.08 77.6278 190.678C77.7296 191.277 77.7086 191.89 77.5662 192.48C77.4238 193.07 77.1628 193.625 76.7993 194.112L74.7513 197.024C73.4393 198.912 71.8073 199.968 69.7593 198.848C71.9353 200.704 71.1673 202.976 69.7593 204.928L66.1113 210.368C65.946 210.583 65.7043 210.726 65.4362 210.768C65.1681 210.81 64.8942 210.747 64.6713 210.592L62.7833 209.28C62.5665 209.125 62.4162 208.893 62.3628 208.632C62.3094 208.371 62.3567 208.099 62.4953 207.872L66.7833 201.696C66.9504 201.442 67.0655 201.157 67.1222 200.859C67.1788 200.56 67.1758 200.253 67.1134 199.956C67.0509 199.658 66.9302 199.376 66.7582 199.125C66.5863 198.875 66.3664 198.661 66.1113 198.496L63.1033 196.384ZM72.7033 192.736C72.8867 192.49 73.017 192.209 73.086 191.911C73.1549 191.612 73.161 191.303 73.1038 191.002C73.0466 190.701 72.9274 190.415 72.7538 190.163C72.5802 189.91 72.3559 189.697 72.0953 189.536L69.2153 187.552L65.1193 193.408L67.9993 195.424C68.2427 195.608 68.5218 195.741 68.819 195.812C69.1162 195.884 69.425 195.892 69.7258 195.838C70.0266 195.784 70.3128 195.668 70.5665 195.498C70.8201 195.327 71.0356 195.106 71.1993 194.848L72.7033 192.736Z" fill="#0063A6"/>
<path d="M178.592 207.616C178.366 207.767 178.089 207.825 177.821 207.778C177.552 207.73 177.313 207.58 177.152 207.36L171.072 198.592L158.912 191.936L158.656 191.68C158.593 191.599 158.548 191.505 158.525 191.405C158.501 191.304 158.501 191.2 158.522 191.1C158.543 190.999 158.586 190.904 158.648 190.822C158.71 190.74 158.789 190.672 158.88 190.624L160.736 189.312C161.216 188.992 161.536 188.992 162.432 189.312L170.592 193.632L169.408 184.48C169.248 183.456 169.408 183.168 169.824 182.848L171.712 181.536C171.778 181.461 171.86 181.401 171.951 181.36C172.042 181.319 172.141 181.298 172.24 181.298C172.34 181.298 172.439 181.319 172.53 181.36C172.621 181.401 172.702 181.461 172.768 181.536C172.852 181.637 172.907 181.758 172.928 181.888L174.848 195.744L180.96 204.544C181.099 204.772 181.146 205.043 181.093 205.305C181.039 205.566 180.889 205.797 180.672 205.952L178.592 207.616Z" fill="#0063A6"/>
<path d="M192.896 196.128C192.701 196.311 192.443 196.412 192.176 196.412C191.909 196.412 191.652 196.311 191.456 196.128L174.496 180.128C174.307 179.937 174.2 179.678 174.2 179.408C174.2 179.139 174.307 178.88 174.496 178.688L182.016 170.688C182.212 170.506 182.469 170.405 182.736 170.405C183.003 170.405 183.261 170.506 183.456 170.688L184.704 171.872C184.886 172.068 184.988 172.325 184.988 172.592C184.988 172.86 184.886 173.117 184.704 173.312L179.488 178.88L184.096 183.168L188.576 178.4C188.772 178.218 189.029 178.117 189.296 178.117C189.563 178.117 189.821 178.218 190.016 178.4L191.232 179.552C191.422 179.744 191.528 180.003 191.528 180.272C191.528 180.542 191.422 180.801 191.232 180.992L186.752 185.792L192.352 191.04L197.696 185.312C197.892 185.13 198.149 185.029 198.416 185.029C198.683 185.029 198.941 185.13 199.136 185.312L200.384 186.464C200.566 186.66 200.668 186.917 200.668 187.184C200.668 187.452 200.566 187.709 200.384 187.904L192.896 196.128Z" fill="#0063A6"/>
<path d="M189.599 159.264C189.697 159.105 189.843 158.982 190.016 158.912C190.189 158.843 190.379 158.832 190.559 158.88L213.311 166.24C213.515 166.282 213.709 166.357 213.887 166.464C213.974 166.516 214.049 166.585 214.108 166.667C214.168 166.748 214.21 166.841 214.234 166.939C214.258 167.037 214.262 167.139 214.247 167.238C214.231 167.338 214.196 167.434 214.143 167.52L212.767 169.76C212.656 169.927 212.488 170.049 212.293 170.102C212.099 170.155 211.892 170.136 211.711 170.048L207.295 168.64L203.775 174.528L206.975 177.728C207.295 178.048 207.487 178.432 207.263 178.816L205.887 181.056C205.844 181.147 205.782 181.228 205.705 181.293C205.628 181.358 205.538 181.406 205.441 181.434C205.344 181.461 205.242 181.467 205.143 181.451C205.043 181.436 204.948 181.399 204.863 181.344L204.383 180.96L187.167 164.384C187.051 164.233 186.987 164.047 186.987 163.856C186.987 163.665 187.051 163.479 187.167 163.328L189.599 159.264ZM192.191 163.616L201.023 171.936L203.679 167.456L192.191 163.616Z" fill="#0063A6"/>
<path d="M208.736 151.936L218.112 154.976C218.359 155.07 218.56 155.255 218.673 155.494C218.786 155.732 218.803 156.006 218.72 156.256L218.016 158.464C217.935 158.723 217.755 158.939 217.515 159.065C217.275 159.19 216.995 159.216 216.736 159.136L194.592 151.968C194.339 151.881 194.131 151.698 194.011 151.458C193.892 151.219 193.87 150.943 193.952 150.688L196.64 142.4C196.816 141.821 197.109 141.283 197.5 140.821C197.891 140.359 198.373 139.981 198.915 139.712C199.457 139.442 200.049 139.286 200.654 139.253C201.258 139.22 201.864 139.311 202.432 139.52L205.824 140.608C208 141.312 209.504 142.592 209.024 144.864C210.176 142.24 212.544 142.304 214.816 143.04L221.216 145.12C221.469 145.208 221.677 145.391 221.797 145.63C221.916 145.869 221.938 146.145 221.856 146.4L221.12 148.608C221.087 148.737 221.028 148.859 220.946 148.964C220.864 149.069 220.761 149.156 220.644 149.219C220.527 149.282 220.397 149.32 220.264 149.331C220.131 149.341 219.998 149.324 219.872 149.28L212.736 146.976C212.432 146.874 212.109 146.835 211.789 146.863C211.469 146.89 211.159 146.983 210.876 147.137C210.594 147.29 210.346 147.5 210.149 147.753C209.951 148.006 209.808 148.297 209.728 148.608L208.736 151.936ZM202.336 143.744C202.043 143.636 201.73 143.59 201.417 143.61C201.105 143.63 200.801 143.715 200.523 143.859C200.246 144.004 200.002 144.205 199.807 144.45C199.612 144.695 199.471 144.977 199.392 145.28L198.304 148.48L205.152 150.688L206.208 147.488C206.322 147.195 206.373 146.881 206.358 146.567C206.343 146.253 206.262 145.945 206.12 145.665C205.978 145.384 205.779 145.136 205.535 144.937C205.291 144.739 205.008 144.594 204.704 144.512L202.336 143.744Z" fill="#0063A6"/>
<path d="M205.569 131.36C207.009 131.36 207.553 130.784 208.769 129.12L212.193 124.8C212.892 123.71 213.922 122.874 215.131 122.413C216.341 121.952 217.667 121.891 218.913 122.24C220.766 122.537 222.437 123.528 223.587 125.011C224.736 126.495 225.278 128.36 225.103 130.228C224.928 132.097 224.049 133.829 222.644 135.073C221.239 136.317 219.413 136.98 217.537 136.928H216.065C215.805 136.882 215.571 136.743 215.406 136.536C215.242 136.33 215.157 136.072 215.169 135.808L215.393 133.536C215.417 133.267 215.544 133.018 215.746 132.839C215.948 132.661 216.211 132.567 216.481 132.576H217.921C218.326 132.639 218.74 132.618 219.137 132.515C219.534 132.413 219.906 132.23 220.229 131.978C220.553 131.726 220.822 131.411 221.019 131.052C221.217 130.692 221.338 130.296 221.377 129.888C221.433 129.482 221.4 129.068 221.28 128.676C221.159 128.284 220.955 127.923 220.681 127.619C220.406 127.314 220.069 127.073 219.692 126.912C219.315 126.751 218.907 126.675 218.497 126.688H217.953C216.513 126.688 215.937 127.264 215.009 128.448L210.817 133.696C210.102 134.528 209.185 135.162 208.153 135.538C207.122 135.913 206.012 136.017 204.929 135.84C203.95 135.808 202.99 135.563 202.115 135.122C201.24 134.682 200.472 134.056 199.863 133.289C199.254 132.522 198.819 131.631 198.589 130.679C198.359 129.727 198.338 128.737 198.529 127.776C198.509 126.815 198.699 125.861 199.086 124.981C199.474 124.101 200.049 123.316 200.771 122.682C201.494 122.048 202.347 121.58 203.269 121.31C204.192 121.04 205.163 120.975 206.113 121.12H206.913C207.176 121.16 207.414 121.297 207.58 121.505C207.747 121.712 207.828 121.975 207.809 122.24L207.585 124.512C207.577 124.647 207.542 124.778 207.483 124.899C207.424 125.02 207.342 125.129 207.24 125.218C207.139 125.307 207.022 125.375 206.894 125.419C206.767 125.463 206.632 125.481 206.497 125.472H205.729C205.322 125.388 204.901 125.394 204.495 125.489C204.09 125.583 203.71 125.764 203.382 126.02C203.053 126.275 202.784 126.599 202.593 126.968C202.401 127.338 202.292 127.744 202.273 128.16C202.217 128.566 202.25 128.98 202.371 129.372C202.491 129.763 202.695 130.124 202.969 130.429C203.244 130.734 203.581 130.975 203.958 131.136C204.336 131.297 204.743 131.373 205.153 131.36H205.569Z" fill="#0063A6"/>
<path d="M93.2812 229.856V227.168L98.1132 222.368C100.609 219.84 102.465 217.856 103.681 216.448C104.753 215.241 105.707 213.934 106.529 212.544C107.127 211.539 107.6 210.465 107.937 209.344C108.218 208.389 108.359 207.397 108.353 206.4C108.458 204.733 107.907 203.091 106.817 201.824C106.265 201.296 105.612 200.885 104.898 200.615C104.183 200.346 103.421 200.224 102.657 200.256C101.686 200.26 100.727 200.467 99.8412 200.864C98.9616 201.273 98.1934 201.888 97.6012 202.656C97.2812 203.744 96.9292 205.088 96.5132 206.784H94.4972L95.2012 200.832C95.2012 199.904 95.3932 198.944 95.4892 197.92C96.6147 196.833 97.9555 195.994 99.4252 195.456C101.022 194.914 102.699 194.644 104.385 194.656C106.54 194.55 108.686 194.991 110.625 195.936C112.155 196.711 113.407 197.94 114.209 199.456C114.957 200.878 115.352 202.458 115.361 204.064C115.372 205.095 115.221 206.121 114.913 207.104C114.541 208.233 114.025 209.308 113.377 210.304C112.697 211.44 111.915 212.511 111.041 213.504L108.097 216.512L105.345 219.2C103.905 220.608 102.369 222.08 100.673 223.584V223.936H105.249H112.161C113.409 223.936 114.945 223.936 116.769 223.712L116.961 224.064C116.961 225.6 116.705 226.784 116.705 227.648C116.719 228.377 116.783 229.104 116.897 229.824V230.112L109.185 229.92H105.473L93.2812 229.856Z" fill="#0063A6"/>
<path d="M126.626 215.136L125.634 214.592C125.634 213.674 125.698 212.362 125.826 210.656V206.496V203.072V200.192C125.826 198.912 125.826 198.144 125.826 197.92C125.826 197.696 125.826 197.024 125.826 196.576C125.826 196.128 125.826 195.648 125.826 195.104L126.178 194.848C130.338 194.848 133.954 195.104 137.026 195.104H139.778L144.706 194.88L144.93 195.296C144.738 197.194 144.642 198.41 144.642 198.944C144.642 199.424 144.642 200 144.642 200.736L144.385 201.056H142.082H136.674C132.994 201.056 130.274 201.056 128.962 201.056L128.77 209.344C129.962 208.738 131.217 208.265 132.514 207.936C133.561 207.679 134.635 207.55 135.714 207.552C138.492 207.407 141.217 208.361 143.298 210.208C144.219 211.12 144.939 212.214 145.413 213.421C145.887 214.628 146.104 215.92 146.05 217.216C146.026 219.597 145.339 221.924 144.065 223.936C142.586 226.254 140.462 228.089 137.954 229.216C135.714 230.309 133.245 230.847 130.754 230.784C129.766 230.796 128.78 230.71 127.81 230.528C126.718 230.298 125.647 229.977 124.61 229.568C124.518 228.792 124.379 228.022 124.193 227.264C124.193 226.496 123.586 224.768 122.882 222.08L124.578 221.472C125.109 222.628 125.798 223.705 126.626 224.672C127.438 225.55 128.417 226.257 129.506 226.752C130.61 227.262 131.809 227.535 133.026 227.552C133.907 227.57 134.782 227.406 135.597 227.07C136.412 226.734 137.149 226.234 137.762 225.6C138.982 224.074 139.647 222.178 139.647 220.224C139.647 218.27 138.982 216.374 137.762 214.848C137.087 214.18 136.28 213.661 135.393 213.325C134.505 212.989 133.557 212.843 132.61 212.896C131.823 212.877 131.037 212.963 130.274 213.152C129.685 213.299 129.116 213.514 128.578 213.792C128.322 214.048 127.65 214.464 126.626 215.136Z" fill="#0063A6"/>
</svg>
