<svg width="156" height="97" viewBox="0 0 156 97" fill="none" xmlns="http://www.w3.org/2000/svg">
<path d="M25.7863 24.8864C25.7863 24.8864 34.6859 26.0574 40.2398 33.1504" stroke="white" stroke-width="3.204" stroke-miterlimit="10"/>
<path d="M105.097 47.4033C105.097 47.4033 102.755 34.8903 89.2719 34.8903C89.2719 16.9237 74.7013 2.36984 56.7515 2.36984C42.2812 2.36984 30.0191 11.8215 25.8035 24.8866C24.9504 24.7862 24.0972 24.7193 23.2106 24.7193C11.4169 24.7193 1.86487 34.2713 1.86487 46.065C1.86487 56.9721 10.0452 65.9553 20.6009 67.2434C21.2701 77.6821 29.9355 85.946 40.5414 85.946C48.5377 85.946 55.4466 81.2453 58.6418 74.4535C60.2979 86.7825 73.8649 97.1709 90.0749 94.9293C106.62 92.6542 114.616 74.5538 116.958 66.8085C125.188 39.4572 138.755 36.1784 145.865 35.1077C117.878 29.7546 105.097 47.4033 105.097 47.4033Z" stroke="white" stroke-width="3.204" stroke-miterlimit="10"/>
<path d="M105.098 47.4028C105.098 47.4028 107.323 62.7095 92.752 64.2987C92.752 64.2987 80.8245 65.6705 77.9806 51.6519" stroke="white" stroke-width="3.204" stroke-miterlimit="10"/>
</svg>
