<svg width="44" height="37" viewBox="0 0 44 37" fill="none" xmlns="http://www.w3.org/2000/svg">
<path d="M9.00799 0.788086C11.888 0.788086 14.144 1.84409 15.776 3.95609C17.504 6.06809 18.368 9.18809 18.368 13.3161C18.368 21.4761 15.632 28.5321 10.16 34.4841C9.00799 35.6361 7.75999 36.2121 6.41599 36.2121C5.16799 36.2121 4.11199 35.8281 3.24799 35.0601C2.38399 34.1961 1.95199 33.1881 1.95199 32.0361C1.95199 30.9801 2.38399 29.9721 3.24799 29.0121C5.93599 26.2281 7.66399 22.9161 8.43199 19.0761C6.03199 18.8841 4.01599 17.9721 2.38399 16.3401C0.847987 14.7081 0.0799866 12.6441 0.0799866 10.1481C0.0799866 7.46009 0.943987 5.25209 2.67199 3.52409C4.39999 1.70009 6.51199 0.788086 9.00799 0.788086ZM34.64 0.788086C37.52 0.788086 39.776 1.84409 41.408 3.95609C43.136 6.06809 44 9.18809 44 13.3161C44 21.4761 41.264 28.5321 35.792 34.4841C34.64 35.6361 33.392 36.2121 32.048 36.2121C30.8 36.2121 29.744 35.8281 28.88 35.0601C28.016 34.1961 27.584 33.1881 27.584 32.0361C27.584 30.9801 28.016 29.9721 28.88 29.0121C31.568 26.2281 33.296 22.9161 34.064 19.0761C31.664 18.8841 29.648 17.9721 28.016 16.3401C26.48 14.7081 25.712 12.6441 25.712 10.1481C25.712 7.46009 26.576 5.25209 28.304 3.52409C30.032 1.70009 32.144 0.788086 34.64 0.788086Z" fill="#CFD8DC"/>
</svg>
