<svg width="80" height="77" viewBox="0 0 80 77" fill="none" xmlns="http://www.w3.org/2000/svg">
<path d="M59.786 39.1854L79.0816 30.7166L59.786 39.1854ZM51.8939 28.55L59.3328 20.0837L51.8939 28.55ZM14.7748 26.0475L2.45945 7.57829L14.7748 26.0475ZM27.1222 21.3033L25.2597 9.09669L27.1222 21.3033ZM40.3058 22.1987L46.6531 0.506577L40.3058 22.1987ZM43.1714 48.2388C42.1189 51.7231 39.9477 54.1425 38.3199 53.6469C36.6922 53.1513 36.2241 49.9356 37.2766 46.4513C38.329 42.967 40.5071 40.5494 42.1349 41.045C43.7646 41.5337 44.2308 44.7563 43.1714 48.2388ZM29.8888 44.2192C28.8364 47.7035 26.6652 50.1229 25.0356 49.6342C23.4078 49.1386 22.9397 45.9229 23.9922 42.4386C25.0428 38.9612 27.2227 36.5367 28.8505 37.0323C30.4751 37.5122 30.9413 40.7348 29.8888 44.2192ZM48.1667 56.6271C45.4167 65.7258 35.8075 70.8694 26.7019 68.1175C17.6051 65.3606 12.4596 55.7583 15.2115 46.6527L48.1667 56.6271ZM54.1447 58.4369C50.3905 70.8397 37.293 77.8566 24.8902 74.1024C12.4875 70.3483 5.4705 57.2508 9.22468 44.848C12.9789 32.4452 26.0763 25.4283 38.4791 29.1824C50.8888 32.9385 57.8989 46.0341 54.1447 58.4369Z" stroke="white" stroke-width="3.521" stroke-miterlimit="10"/>
</svg>
