<svg width="111" height="190" viewBox="0 0 111 190" fill="none" xmlns="http://www.w3.org/2000/svg">
<path d="M108.293 55.0232C108.293 25.6811 84.4952 1.88324 55.1531 1.88324C25.811 1.88324 2.01316 25.6811 2.01316 55.0232C2.01316 62.3687 19.4863 110.225 26.0913 128.058C27.5724 132.081 31.4152 134.743 35.6985 134.743H74.6278C78.911 134.743 82.7338 132.081 84.235 128.058C90.7999 110.225 108.293 62.3687 108.293 55.0232Z" stroke="white" stroke-width="3.687" stroke-miterlimit="10"/>
<path d="M15.2831 108.163H95.0031" stroke="white" stroke-width="3.687" stroke-miterlimit="10"/>
<path d="M41.8635 108.163C41.8635 108.163 28.5736 74.9584 28.5736 8.52844" stroke="white" stroke-width="3.687" stroke-miterlimit="10"/>
<path d="M68.4232 108.163C68.4232 108.163 81.7132 74.9584 81.7132 8.52844" stroke="white" stroke-width="3.687" stroke-miterlimit="10"/>
<path d="M41.864 148.333V134.743H68.424V148.333C68.424 151.836 65.5818 154.678 62.0792 154.678H48.1887C44.7061 154.658 41.864 151.816 41.864 148.333Z" stroke="white" stroke-width="3.687" stroke-miterlimit="10"/>
<path d="M69.8642 187.883H40.4221C37.5399 187.883 35.2182 185.561 35.2182 182.679V173.152C35.2182 170.27 37.5399 167.948 40.4221 167.948H69.8642C72.7464 167.948 75.0682 170.27 75.0682 173.152V182.679C75.0682 185.541 72.7464 187.883 69.8642 187.883Z" stroke="white" stroke-width="3.687" stroke-miterlimit="10"/>
</svg>
