<svg width="1440" height="400" viewBox="0 0 1440 400" fill="none" xmlns="http://www.w3.org/2000/svg">
<path fill-rule="evenodd" clip-rule="evenodd" d="M1455.16 297.254L1455.16 0C1437.95 0 1424.81 72.8555 1385.21 72.8555C1345.61 72.8555 1347.94 57.3443 1305.56 58.7544C1263.18 60.1645 1253.99 131.61 1223.35 131.61C1192.72 131.61 1187.1 116.099 1143.19 116.099C1099.28 116.099 1088.05 179.553 1056.9 179.553C1025.76 179.553 1009.42 154.642 959.894 154.642C910.367 154.642 882.285 223.267 838.886 223.267C795.486 223.267 786.806 199.765 722.984 199.765C659.161 199.765 636.695 250.059 592.275 250.059C547.854 250.059 544.465 231.312 495.775 230.504C447.085 229.696 426.846 297.254 390.084 297.254C353.323 297.254 349.238 278.731 303.796 278.731C258.354 278.731 239.333 351.116 193 351.116C146.666 351.116 56.7854 345.745 0.00012207 375.331V400C458.93 400 996.227 400 1455.16 400V297.254Z" fill="#E3F0F9"/>
<path fill-rule="evenodd" clip-rule="evenodd" d="M1455.16 304.96L1455.16 30C1437.95 30 1424.81 97.3913 1385.21 97.3913C1345.61 97.3913 1347.94 83.0435 1305.56 84.3478C1263.18 85.6522 1253.99 151.739 1223.35 151.739C1192.72 151.739 1187.1 137.391 1143.19 137.391C1099.28 137.391 1088.05 196.087 1056.9 196.087C1025.76 196.087 1009.42 173.043 959.894 173.043C910.367 173.043 882.285 236.522 838.886 236.522C795.486 236.522 786.806 214.783 722.984 214.783C659.161 214.783 636.695 261.304 592.275 261.304C547.854 261.304 544.465 243.964 495.775 243.216C447.085 242.468 426.846 304.96 390.084 304.96C353.323 304.96 349.238 287.826 303.796 287.826C258.354 287.826 239.333 354.783 193 354.783C146.666 354.783 56.7854 349.814 0.00012207 377.181V400C458.93 400 996.227 400 1455.16 400V304.96Z" fill="#2576B9"/>
</svg>
