<svg width="30" height="30" viewBox="0 0 30 30" fill="none" xmlns="http://www.w3.org/2000/svg">
<path fill-rule="evenodd" clip-rule="evenodd" d="M0.333336 2.78392C0.333336 2.13396 0.591531 1.51063 1.05112 1.05104C1.51071 0.59145 2.13405 0.333255 2.784 0.333255H27.2133C27.5354 0.332729 27.8545 0.395739 28.1522 0.518677C28.4499 0.641616 28.7205 0.822068 28.9483 1.0497C29.1762 1.27734 29.357 1.54769 29.4802 1.84527C29.6035 2.14285 29.6668 2.46182 29.6667 2.78392V27.2133C29.667 27.5354 29.6038 27.8545 29.4808 28.1522C29.3577 28.4499 29.1771 28.7205 28.9494 28.9483C28.7216 29.1762 28.4512 29.3569 28.1535 29.4802C27.8559 29.6034 27.5368 29.6668 27.2147 29.6666H2.784C2.46206 29.6666 2.14328 29.6032 1.84587 29.4799C1.54845 29.3567 1.27823 29.176 1.05065 28.9483C0.823065 28.7206 0.642578 28.4503 0.519499 28.1528C0.39642 27.8553 0.333161 27.5365 0.333336 27.2146V2.78392ZM11.944 11.5173H15.916V13.5119C16.4893 12.3653 17.956 11.3333 20.16 11.3333C24.3853 11.3333 25.3867 13.6173 25.3867 17.8079V25.5706H21.1107V18.7626C21.1107 16.3759 20.5373 15.0293 19.0813 15.0293C17.0613 15.0293 16.2213 16.4813 16.2213 18.7626V25.5706H11.944V11.5173ZM4.61067 25.3879H8.888V11.3333H4.61067V25.3866V25.3879ZM9.5 6.74926C9.50807 7.11549 9.4429 7.47964 9.30832 7.82034C9.17375 8.16104 8.97247 8.47144 8.71631 8.7333C8.46015 8.99516 8.15427 9.20322 7.81661 9.34526C7.47895 9.48731 7.11632 9.56048 6.75 9.56048C6.38368 9.56048 6.02105 9.48731 5.6834 9.34526C5.34574 9.20322 5.03985 8.99516 4.78369 8.7333C4.52753 8.47144 4.32626 8.16104 4.19168 7.82034C4.05711 7.47964 3.99194 7.11549 4 6.74926C4.01583 6.03039 4.31252 5.34631 4.82652 4.8435C5.34052 4.3407 6.03097 4.05915 6.75 4.05915C7.46904 4.05915 8.15949 4.3407 8.67349 4.8435C9.18749 5.34631 9.48417 6.03039 9.5 6.74926Z" fill="#2576B9"/>
</svg>
