<svg width="24" height="24" viewBox="0 0 24 24" fill="none" xmlns="http://www.w3.org/2000/svg">
<path d="M21.28 0.47998H2.72C1.488 0.47998 0.48 1.48798 0.48 2.71998V21.28C0.48 22.512 1.488 23.52 2.72 23.52H21.28C22.512 23.52 23.52 22.512 23.52 21.28V2.71998C23.52 1.48798 22.512 0.47998 21.28 0.47998ZM14.1056 3.83038H15.1178V7.95582C15.1178 8.19454 15.1178 8.31838 15.1302 8.35102C15.1526 8.50846 15.232 8.58878 15.3683 8.58878C15.5712 8.58878 15.7846 8.43134 16.0096 8.11326V3.83038H17.0253V9.43358H16.0096V8.82238C15.6054 9.28606 15.2198 9.51134 14.8496 9.51134C14.5226 9.51134 14.297 9.37854 14.1955 9.09438C14.1395 8.9251 14.1056 8.65662 14.1056 8.2611V3.83038ZM10.2698 5.65694C10.2698 5.05822 10.3718 4.62014 10.5878 4.33694C10.8688 3.95422 11.2643 3.76254 11.7699 3.76254C12.2787 3.76254 12.6736 3.95422 12.9549 4.33694C13.1674 4.62014 13.2701 5.05822 13.2701 5.65694V7.62014C13.2701 8.21534 13.1677 8.65694 12.9549 8.93822C12.6736 9.31998 12.279 9.51166 11.7699 9.51166C11.264 9.51166 10.8685 9.31998 10.5878 8.93822C10.3718 8.65694 10.2698 8.21534 10.2698 7.62014V5.65694ZM7.55424 1.91422L8.35392 4.86686L9.1216 1.91422H10.2602L8.90592 6.38846V9.43358H7.77952V6.38846C7.67776 5.8483 7.45248 5.0579 7.09152 4.00926C6.85408 3.31166 6.60672 2.61086 6.3696 1.91422H7.55424ZM20.0234 20.1657C19.8205 21.0499 19.0966 21.7021 18.2262 21.799C16.1642 22.0294 14.0774 22.0307 12 22.0294C9.92224 22.0307 7.83552 22.0294 5.77376 21.799C4.90304 21.7017 4.18048 21.0496 3.97728 20.1657C3.68768 18.9062 3.68768 17.5315 3.68768 16.2355C3.68768 14.9382 3.69088 13.5645 3.9808 12.3046C4.18368 11.4208 4.90656 10.7689 5.77728 10.6717C7.83904 10.4406 9.92576 10.44 12.0035 10.4406C14.081 10.44 16.1677 10.4406 18.2298 10.6717C19.0998 10.7689 19.8234 11.4208 20.0266 12.3046C20.3162 13.5648 20.3146 14.9382 20.3146 16.2355C20.3149 17.5315 20.3133 18.9062 20.0234 20.1657Z" fill="#2576B9"/>
</svg>
